<svg xmlns="http://www.w3.org/2000/svg" viewBox="0 0 64 64">
  <rect width="64" height="64" fill="#2791CB"/>
  <path fill="#fff" d="M47 12.5c-8.6 1.6-16.4 7.4-20.4 15.6l3.6-.4-4.9 3.4c-.9 2.6-1.5 5.4-1.8 8.3l-.4 3.6 3.6-.6c3-.5 5.8-1.3 8.4-2.5l-1.8-2.4 5.2.8c5.7-4.6 8.9-11.8 9-19.4l-3.4 2.3 3.2-5.6c-.1-1.2-.2-2.3-.3-3.1z"/>
  <path fill="none" stroke="#2791CB" stroke-width="1.5" stroke-linecap="round" d="M44.5 16.5C36 25 30 32.5 25 41"/>
  <path fill="none" stroke="#fff" stroke-width="2.4" stroke-linecap="round" d="M25.4 40.4L19 49.5"/>
</svg>
